<svg width="16" height="9" viewBox="0 0 16 9" fill="none" xmlns="http://www.w3.org/2000/svg">
<path d="M4.72192 1.69144C5.30554 1.69144 5.77843 2.16449 5.77856 2.74808V5.91898C5.77856 6.50267 5.30562 6.97562 4.72192 6.97562H2.60864C2.02495 6.97562 1.55201 6.50267 1.552 5.91898V2.74808C1.55213 2.16449 2.02502 1.69144 2.60864 1.69144H4.72192Z" fill="white"/>
<path fill-rule="evenodd" clip-rule="evenodd" d="M12.3333 0.635773C13.3837 0.635971 14.2356 1.48858 14.2356 2.53909V6.13284L14.2258 6.32718C14.1346 7.22226 13.4228 7.93454 12.5276 8.02542L12.3333 8.03519H2.39868L2.20435 8.02542C1.30915 7.93458 0.597312 7.22227 0.506104 6.32718L0.496338 6.13284V2.53909C0.496362 1.48847 1.34806 0.635797 2.39868 0.635773H12.3333ZM2.39868 1.27054C1.69828 1.27056 1.13015 1.83869 1.13013 2.53909V6.13284C1.13056 6.8329 1.69853 7.4004 2.39868 7.40042H12.3333C13.0333 7.40022 13.6014 6.8328 13.6018 6.13284V2.53909C13.6018 1.8388 13.0335 1.27074 12.3333 1.27054H2.39868Z" fill="white"/>
<path d="M14.7522 2.30765C15.1023 2.30765 15.3858 2.59137 15.386 2.94144V5.69827C15.3859 6.04845 15.1024 6.33206 14.7522 6.33206H14.5413V2.30765H14.7522Z" fill="white"/>
</svg>
