<svg width="12" height="9" viewBox="0 0 12 9" fill="none" xmlns="http://www.w3.org/2000/svg">
<path d="M6.81201 2.75066C7.10386 2.75066 7.34045 2.98725 7.34045 3.2791V7.50663C7.34045 7.79848 7.10386 8.03507 6.81201 8.03507H4.69824C4.40639 8.03507 4.1698 7.79848 4.1698 7.50663V3.2791C4.1698 2.98725 4.40639 2.75066 4.69824 2.75066L6.81201 2.75066Z" fill="white"/>
<path d="M3.11413 5.39289C3.40598 5.39289 3.64257 5.62948 3.64257 5.92133V7.50666C3.64257 7.79851 3.40598 8.0351 3.11413 8.0351L1.00037 8.0351C0.708515 8.0351 0.471924 7.79851 0.471924 7.50666L0.471924 5.92133C0.471924 5.62948 0.708515 5.39289 1.00037 5.39289H3.11413Z" fill="white"/>
<path d="M10.5096 0.636109C10.8015 0.636109 11.0381 0.8727 11.0381 1.16455L11.0381 7.50585C11.0381 7.7977 10.8015 8.03429 10.5096 8.03429H8.39587C8.10402 8.03429 7.86743 7.79769 7.86743 7.50584V1.16455C7.86743 0.8727 8.10402 0.636108 8.39587 0.636108L10.5096 0.636109Z" fill="white"/>
</svg>
